<svg width="26" height="23" viewBox="0 0 26 23" fill="none" xmlns="http://www.w3.org/2000/svg">
<path d="M13.237 0C5.93281 0 0 5.1543 0 11.5C0 17.8457 5.93281 23 13.237 23C18.945 23 22.4296 20.7188 24.2438 17.8906C26.058 15.0625 26.2874 11.7402 25.7366 9.46875L25.6287 9.07812H25.179L13.237 9.0625H12.6615V14.2656H19.244C18.2503 16.2656 16.227 17.6406 13.237 17.6406C9.32973 17.6406 6.16886 14.8945 6.16886 11.5C6.16886 8.10547 9.32973 5.35938 13.237 5.35938C14.9928 5.35938 16.5867 5.92383 17.8232 6.84375L18.2368 7.14062L22.1755 3.71875L22.5892 3.34375L22.1575 3C19.806 1.13867 16.6676 0 13.237 0ZM13.237 1C16.1573 1 18.7921 1.92773 20.8806 3.42188L18.1109 5.82812C16.7418 4.93945 15.0782 4.35938 13.237 4.35938C8.707 4.35938 5.01782 7.56445 5.01782 11.5C5.01782 15.4355 8.707 18.6406 13.237 18.6406C17.0071 18.6406 19.7183 16.6328 20.6828 13.9062L20.9166 13.2656H13.8125V10.0625L24.6575 10.0781C25.0396 12.0957 24.7856 14.9922 23.2366 17.4062C21.591 19.9688 18.601 22 13.237 22C6.55329 22 1.15104 17.3047 1.15104 11.5C1.15104 5.69531 6.55329 1 13.237 1Z" fill="white"/>
</svg>
